:SAMPLES-PER-SECOND 24
:FULLY-SPECIFIED
:DEGREES
277
root  1.05891 39.5225 21.5677 50.7802 15.3462 36.6243
RightUpLeg  -18.3732 -23.2691 -27.7533
RightLeg  6.76886 -32.2786 -0.424373
RightFoot  -17.3732 0.280902 7.56067
RightToes  -1.74623e-010 0 -2.59999e-017
Spine  30.4965 3.90133 -4.23786
Spine1  16.9628 10.4555 -20.1921
HEad  -20.7735 -21.7943 11.4527
LeftShoulder1  2.33751 -3.56167 -26.9803
LeftArm  -1.1256 0.919502 -38.1649
LeftForeArm  146.007 -64.3676 -156.997
LeftHand  0.332634 12.4181 6.34495
RightShoulder  2.57528 5.06134 23.9408
RightArm  -23.21 11.5627 27.6117
RightForeArm  16.7764 58.2103 16.8876
RightHand  -3.31406 8.08413 -28.3039
LeftUpLeg  -59.6544 0.135002 -27.1528
LeftLeg  48.2647 -11.6587 -13.242
LeftFoot  -10.2604 0.323193 -27.326
LeftToes  -6.27559e-011 -2.10356e-011 8.24929e-012
278
root  2.29583 38.7115 22.8154 38.0944 15.363 25.7737
RightUpLeg  -9.96394 -19.8313 -21.4351
RightLeg  9.27377 -25.8173 -1.71752
RightFoot  -20.5147 0.678198 10.1151
RightToes  -1.74623e-010 0 -2.59999e-017
Spine  32.5949 5.91568 -0.958225
Spine1  18.5558 14.0545 -20.2704
HEad  -21.5968 -23.5925 15.4009
LeftShoulder1  2.41908 -3.70397 -27.4758
LeftArm  -0.990699 0.197204 -38.2184
LeftForeArm  147.372 -64.2542 -157.245
LeftHand  0.385266 11.9679 7.61473
RightShoulder  2.67531 5.46106 23.6979
RightArm  -14.601 17.42 38.2841
RightForeArm  24.2176 63.7953 20.9606
RightHand  -2.95251 7.93321 -25.6251
LeftUpLeg  -57.3946 -5.83467 -12.0297
LeftLeg  26.2486 -12.5132 -6.60591
LeftFoot  -13.9994 -0.39551 -20.8896
LeftToes  -6.27559e-011 -2.10356e-011 8.24929e-012
279
root  3.97972 37.1248 24.4073 26.1379 11.6592 13.6305
RightUpLeg  -3.22128 -19.7169 -15.8806
RightLeg  16.3812 -15.0094 -4.44369
RightFoot  -25.5463 1.51262 13.4491
RightToes  -1.74623e-010 0 -2.59999e-017
Spine  30.2152 6.94327 1.95797
Spine1  20.0388 15.8281 -19.4513
HEad  -18.026 -21.0264 15.4656
LeftShoulder1  2.46369 -3.67249 -28.2693
LeftArm  -1.67856 2.8884 -35.4091
LeftForeArm  145.549 -65.169 -156.152
LeftHand  0.386277 11.7547 7.86623
RightShoulder  2.88996 5.83434 24.8621
RightArm  -0.246097 18.1179 50.7759
RightForeArm  30.83 64.7311 21.1926
RightHand  -2.73744 7.89475 -23.9128
LeftUpLeg  -55.0868 -8.11577 5.16387
LeftLeg  15.2174 -4.98596 -1.06362
LeftFoot  -16.4227 -0.644571 -16.2628
LeftToes  -6.27559e-011 -2.10356e-011 8.24929e-012
280
root  5.83168 35.2585 26.2485 16.1891 5.49817 5.63287
RightUpLeg  4.08436 -15.4062 -16.457
RightLeg  24.5596 -9.1104 -4.7567
RightFoot  -29.8004 2.47725 16.3785
RightToes  -1.74623e-010 0 -2.59999e-017
Spine  27.1539 6.57815 0.55211
Spine1  19.56 13.7131 -16.7026
HEad  -11.9006 -16.6105 14.647
LeftShoulder1  2.59616 -3.73156 -29.8516
LeftArm  -3.11775 8.5388 -29.7016
LeftForeArm  144.249 -65.5734 -155.644
LeftHand  0.3789 11.5291 7.99038
RightShoulder  3.14052 6.02276 26.9711
RightArm  14.8919 14.012 57.2254
RightForeArm  32.3236 63.3027 19.4787
RightHand  -2.73831 8.12014 -23.5346
LeftUpLeg  -52.8865 -3.09153 9.5765
LeftLeg  23.49 -2.88578 -0.936148
LeftFoot  -8.05584 0.487931 -15.3484
LeftToes  -6.27559e-011 -2.10356e-011 8.24929e-012
281
root  7.49512 33.7311 28.3243 8.83942 -0.581024 2.44916
RightUpLeg  9.62806 -8.9862 -19.6689
RightLeg  32.29 -7.51572 -5.32898
RightFoot  -30.2845 2.78947 17.8344
RightToes  -1.74623e-010 0 -2.59999e-017
Spine  24.6762 6.0339 -4.60989
Spine1  18.1614 9.61609 -11.6929
HEad  -7.70129 -15.6748 15.7724
LeftShoulder1  2.86753 -4.16426 -31.3844
LeftArm  -3.38451 8.53129 -23.8609
LeftForeArm  136.792 -69.7014 -149.358
LeftHand  0.328594 10.2161 8.81129
RightShoulder  3.46828 6.11175 30.1624
RightArm  23.8457 10.2153 53.1235
RightForeArm  33.0416 64.6827 20.8405
RightHand  -2.5834 7.84321 -22.6992
LeftUpLeg  -51.8774 0.507716 10.0564
LeftLeg  40.4572 -1.98019 -1.41398
LeftFoot  1.98069 1.95573 -16.7495
LeftToes  -6.27559e-011 -2.10356e-011 8.24929e-012
282
root  8.67973 33.1009 30.0685 5.03845 -6.17584 1.30054
RightUpLeg  9.48474 -3.04415 -20.988
RightLeg  40.7677 -10.876 -10.1968
RightFoot  -24.0233 1.47282 14.3099
RightToes  -1.74623e-010 0 -2.59999e-017
Spine  21.5313 6.06525 -9.81803
Spine1  18.4725 6.85069 -6.83051
HEad  -7.24317 -20.3491 17.7761
LeftShoulder1  2.94224 -4.57847 -30.3872
LeftArm  -1.42979 0.2442 -23.2649
LeftForeArm  107.17 -77.582 -120.463
LeftHand  0.224308 8.39591 9.79362
RightShoulder  3.77755 6.21342 32.9955
RightArm  22.7008 9.00017 44.7197
RightForeArm  34.096 65.87 22.0882
RightHand  -2.57068 7.31098 -23.4977
LeftUpLeg  -49.9381 2.69067 10.0668
LeftLeg  52.2758 -0.924126 -0.798539
LeftFoot  -1.54449 1.33685 -15.2829
LeftToes  -6.27559e-011 -2.10356e-011 8.24929e-012
